<?xml version="1.0" encoding="UTF-8"?>
<!DOCTYPE svg PUBLIC "-//W3C//DTD SVG 1.1//EN" "http://www.w3.org/Graphics/SVG/1.1/DTD/svg11.dtd">
<svg xmlns="http://www.w3.org/2000/svg" version="1.1" width="512px" height="512px" style="shape-rendering:geometricPrecision; text-rendering:geometricPrecision; image-rendering:optimizeQuality; fill-rule:evenodd; clip-rule:evenodd" xmlns:xlink="http://www.w3.org/1999/xlink">
<g><path style="opacity:0.994" fill="#fe7058" d="M 146.5,67.5 C 137.916,89.2503 129.916,111.25 122.5,133.5C 121.883,133.611 121.383,133.944 121,134.5C 120.5,142.493 120.334,150.493 120.5,158.5C 120.672,159.492 120.338,160.158 119.5,160.5C 119.5,152.833 119.5,145.167 119.5,137.5C 89.5,137.5 59.5,137.5 29.5,137.5C 48.2878,114.207 67.2878,91.0404 86.5,68C 106.497,67.5 126.497,67.3334 146.5,67.5 Z"/></g>
<g><path style="opacity:1" fill="#d6dfea" d="M 146.5,67.5 C 167.5,67.5 188.5,67.5 209.5,67.5C 209.5,90.8333 209.5,114.167 209.5,137.5C 180.5,137.5 151.5,137.5 122.5,137.5C 122.5,136.167 122.5,134.833 122.5,133.5C 129.916,111.25 137.916,89.2503 146.5,67.5 Z"/></g>
<g><path style="opacity:1" fill="#fe7058" d="M 210.5,67.5 C 240.5,67.5 270.5,67.5 300.5,67.5C 300.5,97.1667 300.5,126.833 300.5,156.5C 300.784,158.415 300.451,160.081 299.5,161.5C 299.5,153.5 299.5,145.5 299.5,137.5C 270.167,137.5 240.833,137.5 211.5,137.5C 211.5,145.5 211.5,153.5 211.5,161.5C 210.549,160.081 210.216,158.415 210.5,156.5C 210.5,126.833 210.5,97.1667 210.5,67.5 Z"/></g>
<g><path style="opacity:1" fill="#d6dfea" d="M 301.5,67.5 C 322.5,67.5 343.5,67.5 364.5,67.5C 372.976,89.7058 381.309,112.039 389.5,134.5C 389.5,135.5 389.5,136.5 389.5,137.5C 360.167,137.5 330.833,137.5 301.5,137.5C 301.5,114.167 301.5,90.8333 301.5,67.5 Z"/></g>
<g><path style="opacity:0.994" fill="#fe7058" d="M 364.5,67.5 C 384.503,67.3334 404.503,67.5 424.5,68C 443.712,91.0404 462.712,114.207 481.5,137.5C 451.5,137.5 421.5,137.5 391.5,137.5C 391.5,145.167 391.5,152.833 391.5,160.5C 390.662,160.158 390.328,159.492 390.5,158.5C 390.826,150.316 390.492,142.316 389.5,134.5C 381.309,112.039 372.976,89.7058 364.5,67.5 Z"/></g>
<g><path style="opacity:0.99" fill="#e64e3a" d="M 29.5,137.5 C 59.5,137.5 89.5,137.5 119.5,137.5C 119.5,145.167 119.5,152.833 119.5,160.5C 119.5,161.167 119.5,161.833 119.5,162.5C 118.129,164.936 117.129,167.603 116.5,170.5C 107.811,187.524 93.8114,196.524 74.5,197.5C 50.1783,196.685 35.345,184.352 30,160.5C 29.5003,152.841 29.3336,145.174 29.5,137.5 Z"/></g>
<g><path style="opacity:1" fill="#b0b5bb" d="M 209.5,67.5 C 209.833,67.5 210.167,67.5 210.5,67.5C 210.5,97.1667 210.5,126.833 210.5,156.5C 205.746,183.25 189.746,196.583 162.5,196.5C 147.645,196.321 136.145,189.988 128,177.5C 124.98,171.254 122.48,164.921 120.5,158.5C 120.334,150.493 120.5,142.493 121,134.5C 121.383,133.944 121.883,133.611 122.5,133.5C 122.5,134.833 122.5,136.167 122.5,137.5C 151.5,137.5 180.5,137.5 209.5,137.5C 209.5,114.167 209.5,90.8333 209.5,67.5 Z"/></g>
<g><path style="opacity:1" fill="#e64e3a" d="M 299.5,161.5 C 299.5,161.833 299.5,162.167 299.5,162.5C 298.129,164.936 297.129,167.603 296.5,170.5C 290.535,184.169 280.202,192.669 265.5,196C 259.175,196.5 252.842,196.666 246.5,196.5C 243.855,194.69 240.855,193.69 237.5,193.5C 226.855,188.855 219.188,181.188 214.5,170.5C 213.871,167.603 212.871,164.936 211.5,162.5C 211.5,162.167 211.5,161.833 211.5,161.5C 211.5,153.5 211.5,145.5 211.5,137.5C 240.833,137.5 270.167,137.5 299.5,137.5C 299.5,145.5 299.5,153.5 299.5,161.5 Z"/></g>
<g><path style="opacity:1" fill="#b0b5bb" d="M 300.5,67.5 C 300.833,67.5 301.167,67.5 301.5,67.5C 301.5,90.8333 301.5,114.167 301.5,137.5C 330.833,137.5 360.167,137.5 389.5,137.5C 389.5,136.5 389.5,135.5 389.5,134.5C 390.492,142.316 390.826,150.316 390.5,158.5C 382.46,187.984 363.127,200.484 332.5,196C 313.848,189.192 303.182,176.026 300.5,156.5C 300.5,126.833 300.5,97.1667 300.5,67.5 Z"/></g>
<g><path style="opacity:0.993" fill="#e64e3a" d="M 481.5,137.5 C 484.71,157.196 479.376,174.029 465.5,188C 456.964,194.6 447.297,197.767 436.5,197.5C 433.272,196.586 429.939,196.253 426.5,196.5C 423.855,194.69 420.855,193.69 417.5,193.5C 406.855,188.855 399.188,181.188 394.5,170.5C 393.871,167.603 392.871,164.936 391.5,162.5C 391.5,161.833 391.5,161.167 391.5,160.5C 391.5,152.833 391.5,145.167 391.5,137.5C 421.5,137.5 451.5,137.5 481.5,137.5 Z"/></g>
<g><path style="opacity:0.994" fill="#40596b" d="M 210.5,156.5 C 210.216,158.415 210.549,160.081 211.5,161.5C 211.5,161.833 211.5,162.167 211.5,162.5C 211.345,165.716 212.345,168.383 214.5,170.5C 219.188,181.188 226.855,188.855 237.5,193.5C 240.084,195.472 243.084,196.472 246.5,196.5C 252.842,196.666 259.175,196.5 265.5,196C 280.202,192.669 290.535,184.169 296.5,170.5C 298.655,168.383 299.655,165.716 299.5,162.5C 299.5,162.167 299.5,161.833 299.5,161.5C 300.451,160.081 300.784,158.415 300.5,156.5C 303.182,176.026 313.848,189.192 332.5,196C 363.127,200.484 382.46,187.984 390.5,158.5C 390.328,159.492 390.662,160.158 391.5,160.5C 391.5,161.167 391.5,161.833 391.5,162.5C 391.345,165.716 392.345,168.383 394.5,170.5C 399.188,181.188 406.855,188.855 417.5,193.5C 420.084,195.472 423.084,196.472 426.5,196.5C 429.939,196.253 433.272,196.586 436.5,197.5C 436.667,275.834 436.5,354.167 436,432.5C 434.5,438 431,441.5 425.5,443C 312.167,443.667 198.833,443.667 85.5,443C 80,441.5 76.5,438 75,432.5C 74.5,354.167 74.3333,275.834 74.5,197.5C 93.8114,196.524 107.811,187.524 116.5,170.5C 118.655,168.383 119.655,165.716 119.5,162.5C 119.5,161.833 119.5,161.167 119.5,160.5C 120.338,160.158 120.672,159.492 120.5,158.5C 122.48,164.921 124.98,171.254 128,177.5C 136.145,189.988 147.645,196.321 162.5,196.5C 189.746,196.583 205.746,183.25 210.5,156.5 Z"/></g>
<g><path style="opacity:1" fill="#8f5454" d="M 119.5,162.5 C 119.655,165.716 118.655,168.383 116.5,170.5C 117.129,167.603 118.129,164.936 119.5,162.5 Z"/></g>
<g><path style="opacity:1" fill="#8f5454" d="M 211.5,162.5 C 212.871,164.936 213.871,167.603 214.5,170.5C 212.345,168.383 211.345,165.716 211.5,162.5 Z"/></g>
<g><path style="opacity:1" fill="#8f5454" d="M 299.5,162.5 C 299.655,165.716 298.655,168.383 296.5,170.5C 297.129,167.603 298.129,164.936 299.5,162.5 Z"/></g>
<g><path style="opacity:1" fill="#8f5454" d="M 391.5,162.5 C 392.871,164.936 393.871,167.603 394.5,170.5C 392.345,168.383 391.345,165.716 391.5,162.5 Z"/></g>
<g><path style="opacity:1" fill="#a3534e" d="M 237.5,193.5 C 240.855,193.69 243.855,194.69 246.5,196.5C 243.084,196.472 240.084,195.472 237.5,193.5 Z"/></g>
<g><path style="opacity:1" fill="#a3534e" d="M 417.5,193.5 C 420.855,193.69 423.855,194.69 426.5,196.5C 423.084,196.472 420.084,195.472 417.5,193.5 Z"/></g>
<g><path style="opacity:1" fill="#8093a2" d="M 239.5,246.5 C 202.457,246.179 165.457,246.513 128.5,247.5C 128.611,246.883 128.944,246.383 129.5,246C 166.336,245.169 203.002,245.336 239.5,246.5 Z"/></g>
<g><path style="opacity:1" fill="#d5dfea" d="M 239.5,246.5 C 242.614,247.091 245.114,248.758 247,251.5C 247.667,288.833 247.667,326.167 247,363.5C 245.75,366.171 243.917,368.337 241.5,370C 203.833,370.667 166.167,370.667 128.5,370C 126.981,368.649 125.648,367.149 124.5,365.5C 123.333,327.504 123.167,289.504 124,251.5C 124.748,249.249 126.248,247.916 128.5,247.5C 165.457,246.513 202.457,246.179 239.5,246.5 Z"/></g>
<g><path style="opacity:1" fill="#d5dfea" d="M 387.5,253.5 C 387.5,309.833 387.5,366.167 387.5,422.5C 356.167,422.5 324.833,422.5 293.5,422.5C 293.5,365.833 293.5,309.167 293.5,252.5C 294.96,250.537 296.627,248.704 298.5,247C 326.167,246.333 353.833,246.333 381.5,247C 384.409,248.406 386.409,250.572 387.5,253.5 Z"/></g>
<g><path style="opacity:1" fill="#8c9dab" d="M 293.5,252.5 C 293.5,309.167 293.5,365.833 293.5,422.5C 324.833,422.5 356.167,422.5 387.5,422.5C 387.5,366.167 387.5,309.833 387.5,253.5C 388.499,309.998 388.832,366.664 388.5,423.5C 356.5,423.5 324.5,423.5 292.5,423.5C 292.168,366.331 292.501,309.331 293.5,252.5 Z"/></g>
</svg>
